<svg
  width="94"
  height="94"
  viewBox="10.4444 0 93.9999 93.9999"
  fill="none"
  xmlns="http://www.w3.org/2000/svg"
>
  <g>
    <rect
      x="10.4444"
      y="0"
      width="93.9999"
      height="93.9999"
      rx="33.9444"
      fill="#75FB6E"
      shape-rendering="crispEdges"
    />

<path d="M50.3906 24.5509V24.459L50.8259 24.0837H57.5346V20.889H50.8259L49.8235 21.8394V23.1652L49.3523 23.5406H49.2805C49.6718 23.86 50.0152 24.2194 50.3906 24.5509Z" fill="#111111"/>
<path d="M49.4614 23.4971H48.1357L47.2332 24.4515V25.7254L48.1357 26.6758H49.4614L50.4118 25.7254V24.4515L49.4614 23.4971Z" fill="#111111"/>
<path d="M53.8564 42.3154H52.5307L51.6282 43.2698V46.5928L52.5307 47.5432H53.8564L54.8068 46.5928V43.2698L53.8564 42.3154Z" fill="#111111"/>
<path d="M49.4305 47.6119H48.1048L47.2023 48.5623V49.8362L48.1048 50.7906H49.4305L50.3809 49.8362V48.5623L49.4305 47.6119Z" fill="#111111"/>
<path d="M66.7329 47.6119H65.4071L64.5086 48.5623V49.8362L65.4071 50.7906H66.7329L67.6873 49.8362V48.5623L66.7329 47.6119Z" fill="#111111"/>
<path d="M48.2645 25.5407L47.3141 25.6526L47.0346 26.008L45.7168 26.1597L42.5222 30.2049L42.6779 31.5227L42.3065 31.9739L42.3984 32.7965L43.4287 32.6767L43.7162 32.3413L45.034 32.1896L48.1926 28.1484L48.0369 26.8465L48.3723 26.4592L48.2645 25.5407Z" fill="#111111"/>
<path d="M42.3615 41.4154L43.3158 41.5273L43.5954 41.8827L44.9092 42.0344L48.1038 46.0796L47.9481 47.3974L48.3234 47.8486L48.2276 48.6712L47.1973 48.5514L46.9098 48.216L45.592 48.0643L42.4373 44.0231L42.5891 42.7212L42.2536 42.3339L42.3615 41.4154Z" fill="#111111"/>
<path d="M43.0568 31.2962L42.37 31.9631L42.362 32.4144L41.4116 33.3368L41.3357 40.8841L42.2622 41.8345L42.2382 42.4255L42.8172 43.0165L43.56 42.2978L43.5839 41.8545L44.5343 40.932L44.5823 33.4087L43.6718 32.4703L43.6997 31.9591L43.0568 31.2962Z" fill="#111111"/>
<path d="M64.5322 24.5509V24.459L64.0969 24.0837H57.3762V20.889H64.0849L65.0873 21.8394V23.1652L65.5585 23.5406H65.6303C65.251 23.86 64.9075 24.2194 64.5322 24.5509Z" fill="#111111"/>
<path d="M65.459 23.4971H66.7848L67.6873 24.4515V25.7254L66.7848 26.6758H65.459L64.5086 25.7254V24.4515L65.459 23.4971Z" fill="#111111"/>
<path d="M61.0678 42.3373H62.3936L63.2961 43.2917V46.5958L62.3936 47.5462H61.0678L60.1174 46.5958L60.1174 43.2917L61.0678 42.3373Z" fill="#111111"/>
<path d="M66.6563 25.5407L67.6067 25.6526L67.8903 26.008L69.2041 26.1597L72.3987 30.2049L72.2429 31.5227L72.6183 31.9739L72.5225 32.7965L71.4922 32.6767L71.2047 32.3413L69.8869 32.1896L66.7322 28.1484L66.884 26.8465L66.5485 26.4592L66.6563 25.5407Z" fill="#111111"/>
<path d="M72.5597 41.4154L71.6093 41.5273L71.3298 41.8827L70.012 42.0344L66.8214 46.0796L66.9731 47.3974L66.5977 47.8486L66.6936 48.6712L67.7239 48.5514L68.0114 48.216L69.3292 48.0643L72.4878 44.0231L72.3361 42.7212L72.6675 42.3339L72.5597 41.4154Z" fill="#111111"/>
<path d="M71.8643 31.2962L72.5551 31.9631L72.5591 32.4144L73.5095 33.3368L73.5854 40.8841L72.6589 41.8345L72.6829 42.4255L72.1079 43.0165L71.3651 42.2978L71.3372 41.8545L70.3868 40.932L70.3388 33.4087L71.2493 32.4703L71.2213 31.9591L71.8643 31.2962Z" fill="#111111"/>
<path d="M38.8885 44.9416H37.5628L36.6603 45.896V47.1699L37.5628 48.1203H38.8885L39.8389 47.1699V45.896L38.8885 44.9416Z" fill="#111111"/>
<path d="M38.3446 47.2438L37.6577 47.9147L37.6498 48.362L36.6993 49.2884L36.6275 55.2064L37.5499 56.1568L37.53 56.7439L38.109 57.2231L38.8477 56.6201L38.8717 56.1768L39.8221 55.2544L39.874 49.3563L38.9595 48.4179L38.9915 47.9067L38.3446 47.2438Z" fill="#111111"/>
<path d="M30.4422 41.0633L30.6059 42.3811L35.29 46.003L36.6078 45.8353L37.063 46.2066L37.8817 46.1028L37.7539 45.0765L37.4184 44.793L37.2547 43.4752L32.5746 39.8893L31.2768 40.053L30.4422 41.0633Z" fill="#111111"/>
<path d="M49.4818 51.2602L49.4579 50.765L48.799 50.1181L48.1241 50.8049L48.1281 51.2562L47.3694 52.0269L47.2017 52.1946V52.1986V52.2026V58.1286V58.8075L46.7944 59.1988H40.1815L39.7902 58.8075V57.4817L38.8517 56.5473H37.526L36.6275 57.4817V58.8075L37.526 59.71H38.8517L39.279 60.1332V61.459L40.1815 62.3615H46.7944L47.7288 61.459V60.1332L48.1521 59.71H49.4818L50.3803 58.8075V58.3522V52.1946L49.4818 51.2602Z" fill="#111111"/>
<path d="M76.001 44.9416H77.3268L78.2293 45.896V47.1699L77.3268 48.1203H76.001L75.0506 47.1699V45.896L76.001 44.9416Z" fill="#111111"/>
<path d="M76.5415 47.2438L77.2324 47.9147L77.2403 48.362L78.1907 49.2884L78.2626 55.2064L77.3402 56.1568L77.3601 56.7439L76.7811 57.2231L76.0424 56.6201L76.0184 56.1768L75.064 55.2544L75.0161 49.3563L75.9305 48.4179L75.8986 47.9067L76.5415 47.2438Z" fill="#111111"/>
<path d="M84.4466 41.0633L84.2789 42.3811L79.5988 46.003L78.281 45.8353L77.8258 46.2066L77.0031 46.1028L77.1349 45.0765L77.4704 44.793L77.6341 43.4752L82.3142 39.8893L83.612 40.053L84.4466 41.0633Z" fill="#111111"/>
<path d="M65.4071 51.2602L65.4311 50.765L66.09 50.1181L66.7648 50.8049L66.7569 51.2562L67.5196 52.0269L67.6873 52.1946V52.1986V52.2026V58.1286V58.8075L68.0946 59.1988H74.7075L75.0988 58.8075V57.4817L76.0333 56.5473H77.359L78.2615 57.4817V58.8075L77.359 59.71H76.0333L75.61 60.1332V61.459L74.7075 62.3615H68.0946L67.1602 61.459V60.1332L66.7329 59.71H65.4071L64.5086 58.8075V58.3522V52.1946L65.4071 51.2602Z" fill="#111111"/>
<path d="M55.6243 61.7036L55.6123 61.6956L55.6283 60.4018L54.7018 59.4554L53.376 59.4434L52.4296 60.3698L52.4177 61.6597L52.0223 62.083L50.7125 62.071L44.4111 68.2286L44.3991 69.5544L45.3256 70.4649L46.6514 70.4808L52.9528 64.3192L52.9647 63.0254L53.3441 62.6061L54.606 62.6181L55.6243 61.7036Z" fill="#111111"/>
<path d="M44.3975 69.5533L43.9822 69.9487H37.3653L36.978 69.5573V68.2315L36.0395 67.2971H34.7138L33.8153 68.2315V69.5573L34.7138 70.4558H36.0395L36.4668 70.8831V72.2089L37.3653 73.1113H43.9822L44.9166 72.2089V70.8831L45.3399 70.4558H45.3559L44.3975 69.5533Z" fill="#111111"/>
<path d="M59.3692 61.7036L59.3772 61.6956L59.3652 60.4018L60.2916 59.4554L61.6174 59.4434L62.5598 60.3698L62.5718 61.6597L62.9671 62.083L64.2769 62.071L70.5783 68.2286L70.5943 69.5544L69.6679 70.4649L68.3421 70.4808L62.0407 64.3192L62.0247 63.0254L61.6494 62.6061L60.3835 62.6181L59.3692 61.7036Z" fill="#111111"/>
<path d="M70.5942 69.5533L71.0095 69.9487H77.6224L78.0137 69.5573V68.2315L78.9481 67.2971H80.2739L81.1764 68.2315V69.5573L80.2739 70.4558H78.9481L78.5249 70.8831V72.2089L77.6224 73.1113H71.0095L70.0751 72.2089V70.8831L69.6478 70.4558H69.6358L70.5942 69.5533Z" fill="#111111"/>

  </g>
</svg>
