<svg width="24" height="24" viewBox="0 0 87 87" fill="none" xmlns="http://www.w3.org/2000/svg">
<g transform="translate(43.5 43.5) scale(0.8) translate(-43.5 -43.5)">
<g clip-path="url(#clip0_8061_148)">
<path d="M43.7163 16.582C28.7302 16.582 16.582 28.7306 16.582 43.7163C16.582 58.702 28.7302 70.8506 43.7163 70.8506C58.7024 70.8506 70.8506 58.702 70.8506 43.7163C70.8506 28.7306 58.7024 16.582 43.7163 16.582ZM61.6065 43.2738C61.0873 43.7257 60.1094 44.4417 60.1094 44.4417C60.1094 44.4417 60.16 44.7713 60.299 45.0321C60.4379 45.293 60.774 45.6834 60.6713 46.039C60.5685 46.3946 59.8467 46.6725 60.0526 47.0654C60.2585 47.4583 60.7686 47.5792 60.6217 47.9337C60.4748 48.2883 59.7603 48.8979 59.8315 49.162C59.9028 49.4261 60.4828 51.8584 59.1463 52.2828C58.1409 52.6015 55.3768 52.7828 54.0787 52.8515C53.8034 52.8664 53.536 52.9514 53.3023 53.0983C53.069 53.2448 52.8765 53.4488 52.7433 53.6905C52.5404 54.0588 52.3454 54.5671 52.2448 55.2462C51.9915 56.9698 50.2911 60.9263 50.2911 60.9263C50.2911 60.9263 50.2101 61.1108 50.128 61.3058C50.0756 61.431 49.9957 61.5428 49.8941 61.6325C49.7924 61.7223 49.6718 61.7881 49.5411 61.8246C45.5964 62.9115 41.4125 62.7566 37.559 61.3807C37.4419 61.3398 37.3345 61.2751 37.2435 61.1912C37.1524 61.1069 37.0796 61.0048 37.0297 60.8912C36.9797 60.7776 36.9537 60.655 36.9531 60.5309C36.9526 60.4072 36.9775 60.2841 37.0264 60.1702C37.373 59.371 37.6646 58.5722 37.8806 57.9318C37.9743 57.6536 38.08 57.3804 38.1947 57.1102C38.5279 56.324 39.2106 54.7332 39.6682 53.7658C44.5524 54.8472 47.522 52.1222 48.2933 51.2918C48.3167 51.2661 48.3332 51.2349 48.3413 51.2012C48.3495 51.1674 48.349 51.1321 48.34 51.0986C48.331 51.065 48.3138 51.0343 48.2898 51.0091C48.2658 50.984 48.2359 50.9653 48.2029 50.9547C45.7181 50.12 42.5166 50.7549 40.3253 52.4127C41.0228 51.0118 41.8086 49.5473 42.666 48.1019C47.7405 48.7948 50.434 45.7709 51.1113 44.874C51.1316 44.8467 51.1447 44.8146 51.1495 44.7809C51.1543 44.7471 51.1506 44.7127 51.1387 44.6807C51.1269 44.6488 51.1073 44.6203 51.0816 44.5978C51.056 44.5753 51.0252 44.5596 50.9919 44.552C48.6363 43.9804 45.8017 44.7246 43.7785 46.3056C44.3643 45.4012 44.9768 44.5195 45.6125 43.6819C50.9026 41.2124 51.6724 36.4034 51.7842 35.1545C51.7874 35.1206 51.7819 35.0864 51.7683 35.0551C51.7548 35.0238 51.7336 34.9965 51.7066 34.9756C51.6797 34.9547 51.6479 34.9409 51.6142 34.9355C51.5806 34.9301 51.5461 34.9333 51.514 34.9447C50.3154 35.3647 45.7546 37.3463 44.8415 43.3853C44.5043 43.8368 43.9884 44.556 43.3527 45.5278C44.2293 41.8737 42.8136 39.3386 42.2927 38.5651C42.2734 38.5366 42.2473 38.5135 42.2167 38.4977C42.1861 38.482 42.1521 38.4743 42.1177 38.4752C42.0833 38.4761 42.0497 38.4857 42.0201 38.5031C41.9904 38.5205 41.9655 38.545 41.9479 38.5745C41.3477 39.5756 39.4432 43.3723 41.9989 47.7036C41.3046 48.8754 40.5445 50.2481 39.763 51.8088C40.0261 47.5683 37.7674 45.2196 37.0232 44.568C36.9978 44.5455 36.9672 44.5298 36.9342 44.5223C36.9012 44.5147 36.8668 44.5155 36.8341 44.5247C36.8015 44.5338 36.7717 44.551 36.7474 44.5746C36.7231 44.5982 36.7051 44.6275 36.695 44.6599C36.3553 45.7496 35.4241 49.8183 38.9656 53.4514C38.5239 54.3942 38.0807 55.396 37.6437 56.4521C37.6115 56.4405 37.584 56.4307 37.5659 56.4257C36.9446 56.2382 36.3491 55.9745 35.7931 55.6398C35.3368 55.3656 34.8514 55.1431 34.3459 54.9763C32.3785 54.3309 32.6672 53.3815 31.6394 51.4818C31.5725 51.3581 30.7592 50.5093 30.5844 50.3552C30.5421 50.319 30.0229 50.0158 29.7592 49.4597C29.5186 48.95 29.3815 48.4764 29.3304 48.0147C29.2646 47.3964 29.0092 46.9898 28.4061 46.781C25.5088 45.7785 26.8055 42.021 26.9061 41.517C26.9926 41.0912 26.6188 40.1624 26.4813 39.6502C26.469 39.5886 26.4528 39.5127 26.4332 39.4208C26.223 38.4128 26.693 37.5594 27.0403 37.2092C27.3876 36.8589 28.5902 36.2982 28.8442 35.9671C29.0927 35.6444 29.2906 35.275 29.5461 34.9592C29.884 34.5388 30.9158 33.7157 32.3101 32.9693C33.1535 32.5189 33.3018 31.3387 33.6234 30.9773C34.1726 30.3579 35.0051 30.3579 35.6234 29.8C35.9353 29.5186 36.3872 29.3786 36.677 29.0815C38.1125 27.6105 40.0358 27.0143 41.9381 26.6601C43.2196 26.4209 44.6468 26.7892 45.9865 27.0172C46.1777 27.0507 46.3666 27.0957 46.5524 27.1517C49.5592 27.252 53.1789 27.88 54.4868 29.1557C55.1333 29.7841 55.6167 30.561 55.8945 31.4187C56.1131 32.0862 56.4108 32.7253 56.7806 33.3224L57.5845 34.6314C58.0949 35.4588 58.2596 36.4538 58.0432 37.4016C57.918 37.9414 57.8518 38.5073 58.0128 38.8217C58.2643 39.3137 59.0349 40.1132 59.4962 40.5705C59.7205 40.7918 59.9683 40.988 60.2353 41.1556C60.8532 41.547 62.0265 42.2974 62.028 42.3618C62.0294 42.45 62.1257 42.822 61.6065 43.2738Z" fill="black"/>
</g>
</g>
<defs>
<clipPath id="clip0_8061_148">
<rect width="54.2686" height="54.2686" fill="white" transform="translate(16.582 16.582)"/>
</clipPath>
</defs>
</svg>
